{
  "accessors": [
    {
      "bufferView": 2,
      "componentType": 5126,
      "count": 10747,
      "max": [
        36.72739791870117,
        69.38465118408203,
        33.56521987915039
      ],
      "min": [
        -37.61150360107422,
        -0.3884851336479187,
        -38.917701721191406
      ],
      "type": "VEC3"
    },
    {
      "bufferView": 2,
      "byteOffset": 128964,
      "componentType": 5126,
      "count": 10747,
      "type": "VEC3"
    },
    {
      "bufferView": 3,
      "componentType": 5126,
      "count": 10747,
      "type": "VEC4"
    },
    {
      "bufferView": 1,
      "componentType": 5126,
      "count": 10747,
      "type": "VEC2"
    },
    {
      "bufferView": 0,
      "componentType": 5125,
      "count": 55710,
      "type": "SCALAR"
    }
  ],
  "asset": {
    "generator": "fab-model-conversion",
    "version": "2.0"
  },
  "bufferViews": [
    {
      "buffer": 0,
      "byteLength": 222840,
      "target": 34963
    },
    {
      "buffer": 0,
      "byteLength": 85976,
      "byteOffset": 222840,
      "byteStride": 8,
      "target": 34962
    },
    {
      "buffer": 0,
      "byteLength": 257928,
      "byteOffset": 308816,
      "byteStride": 12,
      "target": 34962
    },
    {
      "buffer": 0,
      "byteLength": 171952,
      "byteOffset": 566744,
      "byteStride": 16,
      "target": 34962
    }
  ],
  "buffers": [
    {
      "byteLength": 738696,
      "uri": "Roman_Stone_Capital_tfpvdgeda_High.bin"
    }
  ],
  "images": [
    {
      "uri": "textures/Roman_Stone_Capital_tfpvdgeda_High_4K_albedo.jpeg"
    },
    {
      "uri": "textures/Roman_Stone_Capital_tfpvdgeda_High_4K_orm.png"
    },
    {
      "uri": "textures/Roman_Stone_Capital_tfpvdgeda_High_4K_normal.jpeg"
    }
  ],
  "materials": [
    {
      "doubleSided": true,
      "name": "Roman_Stone_Capital_tfpvdgeda_High",
      "normalTexture": {
        "index": 2
      },
      "occlusionTexture": {
        "index": 1
      },
      "pbrMetallicRoughness": {
        "baseColorTexture": {
          "index": 0
        },
        "metallicFactor": 0.0,
        "metallicRoughnessTexture": {
          "index": 1
        }
      }
    }
  ],
  "meshes": [
    {
      "name": "tfpvdgeda_LOD0_TIER1_000_MatID_1_0",
      "primitives": [
        {
          "attributes": {
            "NORMAL": 1,
            "POSITION": 0,
            "TANGENT": 2,
            "TEXCOORD_0": 3
          },
          "indices": 4,
          "material": 0,
          "mode": 4
        }
      ]
    }
  ],
  "nodes": [
    {
      "children": [
        1
      ],
      "matrix": [
        1.0,
        0.0,
        0.0,
        0.0,
        0.0,
        2.220446049250313e-16,
        -1.0,
        0.0,
        0.0,
        1.0,
        2.220446049250313e-16,
        0.0,
        0.0,
        0.0,
        0.0,
        1.0
      ],
      "name": "Sketchfab_model"
    },
    {
      "children": [
        2
      ],
      "matrix": [
        0.009999999776482582,
        0.0,
        0.0,
        0.0,
        0.0,
        0.0,
        0.009999999776482582,
        0.0,
        0.0,
        -0.009999999776482582,
        0.0,
        0.0,
        0.0,
        0.0,
        0.0,
        1.0
      ],
      "name": "Roman_Stone_Capital_tfpvdgeda_High.fbx"
    },
    {
      "children": [
        3
      ],
      "name": "RootNode"
    },
    {
      "children": [
        4
      ],
      "name": "tfpvdgeda_LOD0_TIER1_000"
    },
    {
      "mesh": 0,
      "name": "tfpvdgeda_LOD0_TIER1_000_MatID_1_0"
    }
  ],
  "samplers": [
    {
      "magFilter": 9729,
      "minFilter": 9987,
      "wrapS": 10497,
      "wrapT": 10497
    }
  ],
  "scene": 0,
  "scenes": [
    {
      "name": "Sketchfab_Scene",
      "nodes": [
        0
      ]
    }
  ],
  "textures": [
    {
      "sampler": 0,
      "source": 0
    },
    {
      "sampler": 0,
      "source": 1
    },
    {
      "sampler": 0,
      "source": 2
    }
  ]
}
